<?xml version="1.0" standalone="no"?>
<!DOCTYPE svg PUBLIC "-//W3C//DTD SVG 20010904//EN"
 "http://www.w3.org/TR/2001/REC-SVG-20010904/DTD/svg10.dtd">
<svg version="1.0" xmlns="http://www.w3.org/2000/svg"
 width="501.000000pt" height="501.000000pt" viewBox="0 0 501.000000 501.000000"
 preserveAspectRatio="xMidYMid meet">
<metadata>
Created by potrace 1.14, written by Peter Selinger 2001-2017
</metadata>
<g transform="translate(0.000000,501.000000) scale(0.100000,-0.100000)"
fill="#000000" stroke="none">
<path d="M4102 4694 c-200 -58 -367 -180 -507 -369 -135 -182 -260 -438 -253
-519 3 -39 48 -82 95 -91 21 -5 45 -10 53 -12 8 -2 60 -4 115 -5 152 -2 283
40 433 139 88 58 231 209 309 325 94 141 201 365 218 459 6 35 6 36 -37 52
-144 55 -286 62 -426 21z"/>
<path d="M1948 3765 c-2 -1 -37 -5 -78 -9 -41 -3 -86 -8 -100 -10 -14 -3 -43
-7 -64 -11 -22 -3 -76 -15 -120 -26 -425 -107 -769 -361 -968 -714 -91 -161
-120 -245 -174 -490 -11 -50 -14 -377 -4 -435 5 -30 12 -71 14 -90 9 -61 57
-232 91 -320 257 -668 881 -1176 1625 -1324 66 -13 103 -18 224 -32 45 -5 316
-5 346 0 14 3 48 7 75 11 281 33 588 157 805 324 85 65 257 248 313 333 128
195 203 390 233 607 3 25 8 57 10 71 10 60 4 280 -11 378 -32 215 -144 524
-240 666 -14 20 -25 39 -25 41 0 3 -20 35 -45 71 -263 384 -669 690 -1118 843
-118 40 -299 84 -392 96 -27 3 -63 8 -80 11 -31 5 -312 13 -317 9z m249 -275
c21 -5 54 -10 73 -13 19 -3 58 -10 85 -17 28 -6 58 -13 67 -15 53 -11 268 -90
353 -130 462 -215 753 -518 886 -920 27 -83 33 -116 34 -190 0 -132 -33 -189
-140 -240 -27 -13 -74 -28 -103 -33 -53 -9 -252 -8 -302 2 -14 3 -63 12 -110
20 -112 20 -104 18 -287 66 -87 23 -167 44 -178 46 -11 2 -33 7 -50 10 -16 4
-39 8 -50 10 -11 1 -45 6 -75 10 -30 4 -104 7 -165 7 -202 -1 -333 -50 -447
-164 -94 -95 -144 -200 -204 -434 -71 -277 -104 -320 -214 -277 -58 22 -215
156 -287 243 -21 26 -47 57 -58 70 -35 44 -118 183 -150 254 -88 193 -126 367
-125 570 0 118 6 160 36 282 61 248 192 454 382 602 105 81 298 172 430 202
26 6 56 13 67 15 31 8 65 13 130 19 33 4 61 8 63 10 7 7 304 2 339 -5z"/>
</g>
</svg>
